<?xml version="1.0" encoding="UTF-8"?><svg id="Layer_2" xmlns="http://www.w3.org/2000/svg" xmlns:xlink="http://www.w3.org/1999/xlink" viewBox="0 0 4600.33 852.22"><defs><style>.cls-1{fill:#0069a8;}.cls-2{letter-spacing:0em;}.cls-3{fill:#4000a5;}.cls-4{letter-spacing:0em;}.cls-5{fill:#fff;}.cls-6{fill:url(#linear-gradient);fill-opacity:.31;}.cls-7{letter-spacing:0em;}.cls-8{fill:url(#linear-gradient-5);fill-opacity:.11;}.cls-9{letter-spacing:-.01em;}.cls-10{fill:#45556c;}.cls-10,.cls-11{font-family:AcuminConcept-Black, 'Acumin Variable Concept';font-size:708.28px;font-variation-settings:'wght' 800, 'wdth' 100, 'slnt' 0;font-weight:800;}.cls-12{fill:#0084d1;}.cls-11{fill:#0b7bc5;}.cls-13{fill:url(#linear-gradient-2);fill-opacity:.4;}.cls-14{fill:url(#linear-gradient-4);fill-opacity:.29;}.cls-15{fill:url(#linear-gradient-3);fill-opacity:.41;}.cls-16{letter-spacing:-.02em;}.cls-17{fill:url(#linear-gradient-6);fill-opacity:.5;}.cls-18{letter-spacing:0em;}</style><linearGradient id="linear-gradient" x1="358.2" y1="665.01" x2="346.95" y2="643.45" gradientUnits="userSpaceOnUse"><stop offset="0" stop-color="#000"/><stop offset=".52" stop-color="#000" stop-opacity="0"/></linearGradient><linearGradient id="linear-gradient-2" x1="635.19" y1="577.13" x2="367.43" y2="800.89" gradientUnits="userSpaceOnUse"><stop offset="0" stop-color="#000" stop-opacity="0"/><stop offset="1" stop-color="#000"/></linearGradient><linearGradient id="linear-gradient-3" x1="707.53" y1="556.94" x2="923.16" y2="383.62" gradientUnits="userSpaceOnUse"><stop offset="0" stop-color="#000" stop-opacity="0"/><stop offset="1" stop-color="#000"/></linearGradient><linearGradient id="linear-gradient-4" x1="152.55" y1="303.31" x2="345.84" y2="76.57" gradientUnits="userSpaceOnUse"><stop offset=".23" stop-color="#000" stop-opacity="0"/><stop offset="1" stop-color="#000"/></linearGradient><linearGradient id="linear-gradient-5" x1="154.34" y1="341.19" x2="17.04" y2="498.58" gradientUnits="userSpaceOnUse"><stop offset=".83" stop-color="#000" stop-opacity="0"/><stop offset="1" stop-color="#000"/></linearGradient><linearGradient id="linear-gradient-6" x1="430.93" y1="494.78" x2="269.77" y2="366.84" gradientUnits="userSpaceOnUse"><stop offset=".37" stop-color="#000" stop-opacity="0"/><stop offset=".92" stop-color="#000" stop-opacity=".69"/><stop offset="1" stop-color="#000"/></linearGradient></defs><g id="Layer_1-2"><text class="cls-11" transform="translate(2576.38 638.28)"><tspan class="cls-4" x="0" y="0">R</tspan><tspan class="cls-2" x="484.47" y="0">e</tspan><tspan x="910.85" y="0">li</tspan><tspan class="cls-18" x="1344.32" y="0">e</tspan><tspan class="cls-16" x="1775.65" y="0">f</tspan></text><text class="cls-10" transform="translate(1099.41 636.77)"><tspan class="cls-9" x="0" y="0">M</tspan><tspan class="cls-7" x="634.62" y="0">ail</tspan></text></g><g id="Layer_2-2"><polygon class="cls-5" points="932.27 218.43 476.78 608 188.11 356 932.26 113.48 932.27 218.43"/><path class="cls-1" d="M243.22,398c-38.56,39-115.22,170.67-79.78,242.44,22.89,22.89,68.67,61.38,75.11,67.15,29.11,27.51,140.67-43.15,235.78-107.38l-231.11-202.22Z"/><path class="cls-6" d="M224.4,695.38c6.79,5.84,11.82,10.15,13.66,11.8,29.11,27.51,140.67-43.15,235.78-107.38l-68.56-59.99-180.87,155.57Z"/><path class="cls-3" d="M932.5,217.77c-71.06,59.29-141.94,118.76-212.85,178.12-78.61,65.81-165.71,148.49-235.95,197.3-70.25,48.82-161.38,100.56-182.69,107.36-10.51,3.36-21.51,5.65-32.66,6.4-5.53.37-11.1.37-16.63-.1-5.34-.45-8.75-.56-16.63-2.37,21.55,20.96,45.21,40.58,67.84,60.63,22.7,20.11,45.73,39.93,69.64,58.91,44.48,26.41,102.38,34.14,154.45,23.74,18.64-3.72,37.15-11.27,53.67-19.64,20.92-10.6,308.23-268.48,325.84-283.88,8.24-7.2,18.2-15.39,25.94-23.4l.05-303.07Z"/><path class="cls-13" d="M589.32,508.87c-37.14,32-73.18,61.77-105.63,84.32-70.25,48.82-161.38,100.56-182.69,107.36-10.51,3.36-21.51,5.65-32.66,6.4-5.53.37-11.1.37-16.63-.1-5.34-.45-8.75-.56-16.63-2.37,21.55,20.96,45.21,40.58,67.84,60.63,22.7,20.11,45.73,39.93,69.64,58.91,44.48,26.41,102.38,34.14,154.45,23.74,18.64-3.72,37.15-11.27,53.67-19.64,11.13-5.64,97.6-81.22,178.78-153.07l-170.14-166.17Z"/><path class="cls-15" d="M777.62,658.95c64.36-57.06,121.35-108.12,128.89-114.71,8.24-7.2,18.2-15.39,25.94-23.4l.05-303.07c-71.06,59.29-141.94,118.76-212.85,178.12-31.02,25.97-63.37,54.57-95.48,82.68l153.46,180.38Z"/><path class="cls-1" d="M924.09,91.46c-35.95-74.38-116.73-101.81-203.69-85.19-36.74,7.02-62.59,25.96-89.17,48.37-35.38,29.82-107.77,87.94-107.77,87.94,0,0-172.58,133.08-224.82,195.48,0,0,181.51,152.3,181.58,152.36,1.79,1.5,193.05-160.87,210.54-175.43,36.21-34.29,79.26-63.81,116.74-97.18,39.15-32.59,124.98-105.01,124.98-105.01.27-2.36-6.79-18.04-8.39-21.34Z"/><path class="cls-12" d="M317.85,38.63C271.73,7.39,210.99-7.32,153.73,3.56c-.91.17-1.83.35-2.74.54-25.95,5.3-52.4,16.41-72.65,31.44-23.76,17.64-40.5,37.14-54,62.01-3.56,6.57-6.02,11.35-8.84,18.34C-5.41,167.89.95,228.68.78,283.57c-.12,36.66-.16,73.38,0,110.04.14,32.83-4.11,94.97,16.15,116.19,0,0,151.85,135.44,152.7,136.21-6.79-6.03-6.86-24.47-7.58-32.16-1.27-13.54-.75-27.18,1.11-40.65,3.86-27.95,13.45-55.12,25.72-81,30.1-63.5,58.21-102.69,109.76-154.14,46.58-53.4,184.27-163.48,184.27-163.48-2.33-1.8-162.66-134.32-165.06-135.95Z"/><path class="cls-14" d="M317.85,38.63C271.73,7.39,210.99-7.32,153.73,3.56c-.91.17-1.83.35-2.74.54-25.95,5.3-52.4,16.41-72.65,31.44-23.76,17.64-40.5,37.14-54,62.01-3.56,6.57-6.02,11.35-8.84,18.34C-5.41,167.89.95,228.68.78,283.57c-.12,36.66-.16,73.38,0,110.04.14,32.83-4.11,94.97,16.15,116.19,0,0,151.85,135.44,152.7,136.21-6.79-6.03-6.86-24.47-7.58-32.16-1.27-13.54-.75-27.18,1.11-40.65,3.86-27.95,13.45-55.12,25.72-81,30.1-63.5,58.21-102.69,109.76-154.14,46.58-53.4,184.27-163.48,184.27-163.48-2.33-1.8-162.66-134.32-165.06-135.95Z"/><path class="cls-8" d="M188.88,492.2c15.36-32.4,33.47-64.3,55.6-93.44C177.75,342.2.59,192.78.59,192.78c0,0,.01,163.31.17,199.97,0,88.42,3.57,104.08,18.55,119.66,8.13,8.47,103.85,92.5,151.42,134.63-5.4-7.17-8.02-27.58-8.68-34.71-1.27-13.54-.14-28.42,1.72-41.89,3.86-27.95,12.84-52.36,25.11-78.24Z"/><path class="cls-17" d="M482.91,174.65s-137.69,110.08-184.27,163.48c-51.55,51.45-79.66,90.63-109.76,154.14-12.27,25.88-21.86,53.05-25.72,81-1.86,13.47-2.38,27.11-1.11,40.65.72,7.7.79,26.13,7.58,32.16l16.7,15.92,419.33-387.33-122.75-100.01Z"/></g></svg>