<?xml version="1.0" encoding="UTF-8"?><svg id="Layer_2" xmlns="http://www.w3.org/2000/svg" xmlns:xlink="http://www.w3.org/1999/xlink" viewBox="0 0 4600.34 852.22"><defs><style>.cls-1{fill:#0b7bc5;}.cls-2{fill:#0069a8;}.cls-3{fill:#4000a5;}.cls-4{fill:#fff;}.cls-5{fill:url(#linear-gradient);fill-opacity:.31;}.cls-6{fill:url(#linear-gradient-5);fill-opacity:.11;}.cls-7{fill:#0084d1;}.cls-8{fill:url(#linear-gradient-2);fill-opacity:.4;}.cls-9{fill:url(#linear-gradient-4);fill-opacity:.29;}.cls-10{fill:url(#linear-gradient-3);fill-opacity:.41;}.cls-11{fill:#45556c;}.cls-12{fill:url(#linear-gradient-6);fill-opacity:.5;}</style><linearGradient id="linear-gradient" x1="358.2" y1="665.01" x2="346.95" y2="643.45" gradientUnits="userSpaceOnUse"><stop offset="0" stop-color="#000"/><stop offset=".52" stop-color="#000" stop-opacity="0"/></linearGradient><linearGradient id="linear-gradient-2" x1="635.19" y1="577.13" x2="367.43" y2="800.89" gradientUnits="userSpaceOnUse"><stop offset="0" stop-color="#000" stop-opacity="0"/><stop offset="1" stop-color="#000"/></linearGradient><linearGradient id="linear-gradient-3" x1="707.53" y1="556.94" x2="923.16" y2="383.62" gradientUnits="userSpaceOnUse"><stop offset="0" stop-color="#000" stop-opacity="0"/><stop offset="1" stop-color="#000"/></linearGradient><linearGradient id="linear-gradient-4" x1="152.55" y1="303.31" x2="345.84" y2="76.57" gradientUnits="userSpaceOnUse"><stop offset=".23" stop-color="#000" stop-opacity="0"/><stop offset="1" stop-color="#000"/></linearGradient><linearGradient id="linear-gradient-5" x1="154.34" y1="341.19" x2="17.04" y2="498.58" gradientUnits="userSpaceOnUse"><stop offset=".83" stop-color="#000" stop-opacity="0"/><stop offset="1" stop-color="#000"/></linearGradient><linearGradient id="linear-gradient-6" x1="430.93" y1="494.78" x2="269.77" y2="366.84" gradientUnits="userSpaceOnUse"><stop offset=".37" stop-color="#000" stop-opacity="0"/><stop offset=".92" stop-color="#000" stop-opacity=".69"/><stop offset="1" stop-color="#000"/></linearGradient></defs><g id="Layer_2-2"><path class="cls-1" d="M2765.59,453.97v184.31h-138.77V150.49h241.71c114.87,0,170.46,61.49,170.46,135.07,0,67.36-39.39,101.82-73.22,115.7,30.74,10.74,63.59,43.28,63.59,125.88v20.31c0,30.34.96,69.7,6.34,90.83h-136.23c-8.25-21-10.38-56.38-10.38-106.51v-12.59c0-42.12-10.05-65.2-73.11-65.2h-50.39ZM2765.59,354.36h66.13c47.61,0,64.95-19.79,64.95-52.61s-20.6-51.65-64.28-51.65h-66.8v104.26Z"/><path class="cls-1" d="M3222.29,479.95c0,37.42,14.36,74.91,55.06,74.91,32.74,0,42.12-13.92,49.09-33.42h135.62c-13.5,49.35-55.61,125.84-187.04,125.84-140.19,0-191.79-94.43-191.79-191.46,0-111.89,59.21-197.82,194.33-197.82,143.87,0,187.78,97.38,187.78,190.05,0,12.5-.25,21.78-1.42,31.91h-241.64ZM3326.99,407.9c-.46-34.73-10.4-64.04-49.93-64.04-36.87,0-51.1,27.18-53.39,64.04h103.32Z"/><path class="cls-1" d="M3526.41,638.28V125.18h138.1v513.1h-138.1Z"/><path class="cls-1" d="M3743.15,125.18h138.1v96.23h-138.1v-96.23ZM3743.15,266.99h138.1v371.29h-138.1v-371.29Z"/><path class="cls-1" d="M4082.13,479.95c0,37.42,14.36,74.91,55.06,74.91,32.74,0,42.12-13.92,49.09-33.42h135.62c-13.5,49.35-55.61,125.84-187.04,125.84-140.19,0-191.79-94.43-191.79-191.46,0-111.89,59.21-197.82,194.33-197.82,143.87,0,187.78,97.38,187.78,190.05,0,12.5-.25,21.78-1.42,31.91h-241.64ZM4186.83,407.9c-.46-34.73-10.4-64.04-49.93-64.04-36.87,0-51.1,27.18-53.39,64.04h103.32Z"/><path class="cls-1" d="M4404.89,638.28v-278.19h-48.68v-93.11h48.68v-21.79c0-79.4,40.37-127.11,131.39-127.11,20.2,0,45.88,1.67,56.58,4.75v90.64c-4.96-.96-12.08-1.42-17.88-1.42-23.85,0-31.99,9-31.99,35.42v19.51h57.35v93.11h-57.35v278.19h-138.1Z"/><path class="cls-11" d="M1557.15,477.61c0-76.23,1.67-174.45,3.79-232.39h-3.79c-20.39,104.62-53.22,249.47-88.89,391.55h-114.45c-28.03-137.77-60.04-282.94-79.05-391.48h-4.29c4,57.37,6.62,152.59,6.62,236.17v155.31h-127.25V148.97h205.77c24.05,98.69,52.17,241.8,63.1,313.9h2.45c12.54-78.44,45.07-207.88,73.44-313.9h199.89v487.8h-137.36v-159.16Z"/><path class="cls-11" d="M2116.41,526.63c0,41.88,2.09,97.66,4.46,110.14h-127.42c-2.83-7.58-5.21-25.17-5.7-34.28-17.69,23.07-45,43.28-104.77,43.28-83.27,0-128.28-52.32-128.28-118.4,0-87.27,69.99-124.98,183.37-124.98h45.56v-20.54c0-23.79-8.46-41.24-41.75-41.24-31.24,0-39.46,14.34-42.71,38.31h-127.46c4.92-61.99,41.7-122.9,173.68-122.44,121.72.46,171.03,47.38,171.03,136.91v133.24ZM1983.63,471.99h-30.57c-47.59,0-63.23,16.67-63.23,44.07,0,21.84,12.92,39.36,40.41,39.36,46.81,0,53.39-32.09,53.39-71.98v-11.45Z"/><path class="cls-11" d="M2196.05,123.66h138.1v96.23h-138.1v-96.23ZM2196.05,265.48h138.1v371.29h-138.1v-371.29Z"/><path class="cls-11" d="M2412.78,636.77V123.66h138.1v513.1h-138.1Z"/><polygon class="cls-4" points="932.27 218.43 476.78 608 188.11 356 932.26 113.48 932.27 218.43"/><path class="cls-2" d="M243.22,398c-38.56,39-115.22,170.67-79.78,242.44,22.89,22.89,68.67,61.38,75.11,67.15,29.11,27.51,140.67-43.15,235.78-107.38l-231.11-202.22Z"/><path class="cls-5" d="M224.4,695.38c6.79,5.84,11.82,10.15,13.66,11.8,29.11,27.51,140.67-43.15,235.78-107.38l-68.56-59.99-180.87,155.57Z"/><path class="cls-3" d="M932.5,217.77c-71.06,59.29-141.94,118.76-212.85,178.12-78.61,65.81-165.71,148.49-235.95,197.3-70.25,48.82-161.38,100.56-182.69,107.36-10.51,3.36-21.51,5.65-32.66,6.4-5.53.37-11.1.37-16.63-.1-5.34-.45-8.75-.56-16.63-2.37,21.55,20.96,45.21,40.58,67.84,60.63,22.7,20.11,45.73,39.93,69.64,58.91,44.48,26.41,102.38,34.14,154.45,23.74,18.64-3.72,37.15-11.27,53.67-19.64,20.92-10.6,308.23-268.48,325.84-283.88,8.24-7.2,18.2-15.39,25.94-23.4l.05-303.07Z"/><path class="cls-8" d="M589.32,508.87c-37.14,32-73.18,61.77-105.63,84.32-70.25,48.82-161.38,100.56-182.69,107.36-10.51,3.36-21.51,5.65-32.66,6.4-5.53.37-11.1.37-16.63-.1-5.34-.45-8.75-.56-16.63-2.37,21.55,20.96,45.21,40.58,67.84,60.63,22.7,20.11,45.73,39.93,69.64,58.91,44.48,26.41,102.38,34.14,154.45,23.74,18.64-3.72,37.15-11.27,53.67-19.64,11.13-5.64,97.6-81.22,178.78-153.07l-170.14-166.17Z"/><path class="cls-10" d="M777.62,658.95c64.36-57.06,121.35-108.12,128.89-114.71,8.24-7.2,18.2-15.39,25.94-23.4l.05-303.07c-71.06,59.29-141.94,118.76-212.85,178.12-31.02,25.97-63.37,54.57-95.48,82.68l153.46,180.38Z"/><path class="cls-2" d="M924.09,91.46c-35.95-74.38-116.73-101.81-203.69-85.19-36.74,7.02-62.59,25.96-89.17,48.37-35.38,29.82-107.77,87.94-107.77,87.94,0,0-172.58,133.08-224.82,195.48,0,0,181.51,152.3,181.58,152.36,1.79,1.5,193.05-160.87,210.54-175.43,36.21-34.29,79.26-63.81,116.74-97.18,39.15-32.59,124.98-105.01,124.98-105.01.27-2.36-6.79-18.04-8.39-21.34Z"/><path class="cls-7" d="M317.85,38.63C271.73,7.39,210.99-7.32,153.73,3.56c-.91.17-1.83.35-2.74.54-25.95,5.3-52.4,16.41-72.65,31.44-23.76,17.64-40.5,37.14-54,62.01-3.56,6.57-6.02,11.35-8.84,18.34C-5.41,167.89.95,228.68.78,283.57c-.12,36.66-.16,73.38,0,110.04.14,32.83-4.11,94.97,16.15,116.19,0,0,151.85,135.44,152.7,136.21-6.79-6.03-6.86-24.47-7.58-32.16-1.27-13.54-.75-27.18,1.11-40.65,3.86-27.95,13.45-55.12,25.72-81,30.1-63.5,58.21-102.69,109.76-154.14,46.58-53.4,184.27-163.48,184.27-163.48-2.33-1.8-162.66-134.32-165.06-135.95Z"/><path class="cls-9" d="M317.85,38.63C271.73,7.39,210.99-7.32,153.73,3.56c-.91.17-1.83.35-2.74.54-25.95,5.3-52.4,16.41-72.65,31.44-23.76,17.64-40.5,37.14-54,62.01-3.56,6.57-6.02,11.35-8.84,18.34C-5.41,167.89.95,228.68.78,283.57c-.12,36.66-.16,73.38,0,110.04.14,32.83-4.11,94.97,16.15,116.19,0,0,151.85,135.44,152.7,136.21-6.79-6.03-6.86-24.47-7.58-32.16-1.27-13.54-.75-27.18,1.11-40.65,3.86-27.95,13.45-55.12,25.72-81,30.1-63.5,58.21-102.69,109.76-154.14,46.58-53.4,184.27-163.48,184.27-163.48-2.33-1.8-162.66-134.32-165.06-135.95Z"/><path class="cls-6" d="M188.88,492.2c15.36-32.4,33.47-64.3,55.6-93.44C177.75,342.2.59,192.78.59,192.78c0,0,.01,163.31.17,199.97,0,88.42,3.57,104.08,18.55,119.66,8.13,8.47,103.85,92.5,151.42,134.63-5.4-7.17-8.02-27.58-8.68-34.71-1.27-13.54-.14-28.42,1.72-41.89,3.86-27.95,12.84-52.36,25.11-78.24Z"/><path class="cls-12" d="M482.91,174.65s-137.69,110.08-184.27,163.48c-51.55,51.45-79.66,90.63-109.76,154.14-12.27,25.88-21.86,53.05-25.72,81-1.86,13.47-2.38,27.11-1.11,40.65.72,7.7.79,26.13,7.58,32.16l16.7,15.92,419.33-387.33-122.75-100.01Z"/></g></svg>